<svg width="45" height="45" viewBox="0 0 45 45" fill="none" xmlns="http://www.w3.org/2000/svg">
<path d="M26.25 16.875C26.25 15.3217 27.5092 14.0625 29.0625 14.0625C30.6158 14.0625 31.875 15.3217 31.875 16.875C31.875 18.4283 30.6158 19.6875 29.0625 19.6875C27.5092 19.6875 26.25 18.4283 26.25 16.875Z" fill="#A4B1DA"/>
<path fill-rule="evenodd" clip-rule="evenodd" d="M13.6266 8.7348C19.5311 8.22154 25.4689 8.22154 31.3734 8.7348L34.2051 8.98095C36.9146 9.21649 39.1096 11.2783 39.514 13.9678C40.3646 19.6241 40.3646 25.3759 39.514 31.0322C39.1096 33.7217 36.9146 35.7835 34.2051 36.0191L31.3734 36.2652C25.469 36.7785 19.5311 36.7785 13.6266 36.2652L10.7949 36.0191C8.08544 35.7835 5.89043 33.7217 5.48599 31.0322C4.63542 25.3759 4.63542 19.6241 5.48599 13.9678C5.89043 11.2783 8.08543 9.21649 10.7949 8.98095L13.6266 8.7348ZM31.1298 11.5367C25.3875 11.0376 19.6126 11.0376 13.8702 11.5367L11.0385 11.7829C9.62414 11.9058 8.47834 12.9821 8.26722 14.386C7.78434 17.5972 7.58973 20.8407 7.68338 24.0779L14.9431 16.8181C15.217 16.5443 15.5917 16.3955 15.9788 16.4069C16.3659 16.4182 16.7312 16.5888 16.9885 16.8783L23.8725 24.6227L28.6178 23.0409C29.1485 22.864 29.7335 23.0185 30.1077 23.4343L36.7061 30.7658C36.7162 30.7156 36.7251 30.665 36.7328 30.614C37.5417 25.2349 37.5417 19.7651 36.7328 14.386C36.5217 12.9821 35.3759 11.9058 33.9615 11.7829L31.1298 11.5367ZM34.9128 32.9775L28.6334 26.0004L23.8822 27.5841C23.3485 27.762 22.7602 27.6047 22.3864 27.1843L15.8773 19.8615L7.92037 27.8184C8.01184 28.7523 8.12745 29.6845 8.26722 30.614C8.47834 32.0179 9.62414 33.0942 11.0385 33.2171L13.8702 33.4633C19.6126 33.9625 25.3875 33.9625 31.1298 33.4633L33.9615 33.2171C34.2967 33.188 34.6167 33.1053 34.9128 32.9775Z" fill="#A4B1DA"/>
</svg>
