<svg width="80" height="90" viewBox="0 0 80 90" fill="none" xmlns="http://www.w3.org/2000/svg">
<g filter="url(#filter0_i_1475_770)">
<path d="M0 22.2917L40 0L80 22.2917V67.0833L40 89.375L0 67.2917V22.2917Z" fill="#FFB950"/>
<path d="M0 22.2917L40 0L80 22.2917V67.0833L40 89.375L0 67.2917V22.2917Z" fill="url(#paint0_linear_1475_770)"/>
</g>
<g filter="url(#filter1_d_1475_770)">
<path d="M20.4536 41.665C20.3267 41.4258 20.4121 41.2402 20.71 41.1084C20.9932 40.9814 21.2886 40.8032 21.5962 40.5737C21.9038 40.3442 22.1553 40.1074 22.3506 39.8633C22.5703 39.5898 22.7803 39.4531 22.9805 39.4531H24.145C24.438 39.4531 24.5845 39.5996 24.5845 39.8926V49.5605C24.5845 49.8535 24.438 50 24.145 50H22.9731C22.6802 50 22.5337 49.8535 22.5337 49.5605V42.5952C22.5337 42.3999 22.5435 42.2046 22.563 42.0093H22.5337C22.3823 42.1997 22.2163 42.3633 22.0356 42.5C21.855 42.6367 21.6719 42.7441 21.4863 42.8223C21.2568 42.9199 21.0835 42.8564 20.9663 42.6318L20.4536 41.665ZM26.4229 44.7925C26.4229 42.8149 26.7305 41.4111 27.3457 40.5811C27.9609 39.751 28.9033 39.3359 30.1729 39.3359C31.4424 39.3359 32.3848 39.751 33 40.5811C33.6152 41.4111 33.9229 42.8149 33.9229 44.7925C33.9229 46.77 33.6152 48.1738 33 49.0039C32.3848 49.834 31.4424 50.249 30.1729 50.249C28.9033 50.249 27.9609 49.834 27.3457 49.0039C26.7305 48.1738 26.4229 46.77 26.4229 44.7925ZM28.5908 44.7925C28.5908 45.6958 28.6641 46.5649 28.8105 47.3999C28.9619 48.2349 29.416 48.6523 30.1729 48.6523C30.9297 48.6523 31.3813 48.2349 31.5278 47.3999C31.6792 46.5649 31.7549 45.6958 31.7549 44.7925C31.7549 43.8892 31.6792 43.02 31.5278 42.1851C31.3813 41.3501 30.9297 40.9326 30.1729 40.9326C29.416 40.9326 28.9619 41.3501 28.8105 42.1851C28.6641 43.02 28.5908 43.8892 28.5908 44.7925ZM35.2119 44.7925C35.2119 42.8149 35.5195 41.4111 36.1348 40.5811C36.75 39.751 37.6924 39.3359 38.9619 39.3359C40.2314 39.3359 41.1738 39.751 41.7891 40.5811C42.4043 41.4111 42.7119 42.8149 42.7119 44.7925C42.7119 46.77 42.4043 48.1738 41.7891 49.0039C41.1738 49.834 40.2314 50.249 38.9619 50.249C37.6924 50.249 36.75 49.834 36.1348 49.0039C35.5195 48.1738 35.2119 46.77 35.2119 44.7925ZM37.3799 44.7925C37.3799 45.6958 37.4531 46.5649 37.5996 47.3999C37.751 48.2349 38.2051 48.6523 38.9619 48.6523C39.7188 48.6523 40.1704 48.2349 40.3169 47.3999C40.4683 46.5649 40.5439 45.6958 40.5439 44.7925C40.5439 43.8892 40.4683 43.02 40.3169 42.1851C40.1704 41.3501 39.7188 40.9326 38.9619 40.9326C38.2051 40.9326 37.751 41.3501 37.5996 42.1851C37.4531 43.02 37.3799 43.8892 37.3799 44.7925ZM44.001 44.7925C44.001 42.8149 44.3086 41.4111 44.9238 40.5811C45.5391 39.751 46.4814 39.3359 47.751 39.3359C49.0205 39.3359 49.9629 39.751 50.5781 40.5811C51.1934 41.4111 51.501 42.8149 51.501 44.7925C51.501 46.77 51.1934 48.1738 50.5781 49.0039C49.9629 49.834 49.0205 50.249 47.751 50.249C46.4814 50.249 45.5391 49.834 44.9238 49.0039C44.3086 48.1738 44.001 46.77 44.001 44.7925ZM46.1689 44.7925C46.1689 45.6958 46.2422 46.5649 46.3887 47.3999C46.54 48.2349 46.9941 48.6523 47.751 48.6523C48.5078 48.6523 48.9595 48.2349 49.106 47.3999C49.2573 46.5649 49.333 45.6958 49.333 44.7925C49.333 43.8892 49.2573 43.02 49.106 42.1851C48.9595 41.3501 48.5078 40.9326 47.751 40.9326C46.9941 40.9326 46.54 41.3501 46.3887 42.1851C46.2422 43.02 46.1689 43.8892 46.1689 44.7925ZM53.8301 50C53.4883 50 53.3174 49.8169 53.3174 49.4507V40.0464C53.3174 39.6802 53.4883 39.4971 53.8301 39.4971H56.5693C58.3271 39.4971 59.5454 39.7827 60.2241 40.354C60.9077 40.9253 61.2495 41.7358 61.2495 42.7856C61.2495 43.8354 60.9077 44.646 60.2241 45.2173C59.5454 45.7886 58.3271 46.0742 56.5693 46.0742H55.4561V49.4507C55.4561 49.8169 55.2852 50 54.9434 50H53.8301ZM55.4561 44.2871H56.562C57.5386 44.2871 58.2026 44.1724 58.5542 43.9429C58.9058 43.7085 59.0815 43.3228 59.0815 42.7856C59.0815 42.2485 58.9058 41.8652 58.5542 41.6357C58.2026 41.4014 57.5386 41.2842 56.562 41.2842H55.4561V44.2871Z" fill="white"/>
</g>
<defs>
<filter id="filter0_i_1475_770" x="0" y="0" width="87" height="96.375" filterUnits="userSpaceOnUse" color-interpolation-filters="sRGB">
<feFlood flood-opacity="0" result="BackgroundImageFix"/>
<feBlend mode="normal" in="SourceGraphic" in2="BackgroundImageFix" result="shape"/>
<feColorMatrix in="SourceAlpha" type="matrix" values="0 0 0 0 0 0 0 0 0 0 0 0 0 0 0 0 0 0 127 0" result="hardAlpha"/>
<feOffset dx="10" dy="10"/>
<feGaussianBlur stdDeviation="3.5"/>
<feComposite in2="hardAlpha" operator="arithmetic" k2="-1" k3="1"/>
<feColorMatrix type="matrix" values="0 0 0 0 0 0 0 0 0 0 0 0 0 0 0 0 0 0 0.25 0"/>
<feBlend mode="normal" in2="shape" result="effect1_innerShadow_1475_770"/>
</filter>
<filter id="filter1_d_1475_770" x="19.2632" y="38.3359" width="48.9863" height="18.9131" filterUnits="userSpaceOnUse" color-interpolation-filters="sRGB">
<feFlood flood-opacity="0" result="BackgroundImageFix"/>
<feColorMatrix in="SourceAlpha" type="matrix" values="0 0 0 0 0 0 0 0 0 0 0 0 0 0 0 0 0 0 127 0" result="hardAlpha"/>
<feOffset dx="3" dy="3"/>
<feGaussianBlur stdDeviation="2"/>
<feComposite in2="hardAlpha" operator="out"/>
<feColorMatrix type="matrix" values="0 0 0 0 0 0 0 0 0 0 0 0 0 0 0 0 0 0 0.25 0"/>
<feBlend mode="normal" in2="BackgroundImageFix" result="effect1_dropShadow_1475_770"/>
<feBlend mode="normal" in="SourceGraphic" in2="effect1_dropShadow_1475_770" result="shape"/>
</filter>
<linearGradient id="paint0_linear_1475_770" x1="8.49063" y1="-10.9484" x2="59.4344" y2="77.9797" gradientUnits="userSpaceOnUse">
<stop stop-color="#FF5A50"/>
<stop offset="1" stop-color="#FFB950"/>
</linearGradient>
</defs>
</svg>
