<svg width="80" height="90" viewBox="0 0 80 90" fill="none" xmlns="http://www.w3.org/2000/svg">
<g filter="url(#filter0_i_1475_753)">
<path d="M0 22.2917L40 0L80 22.2917V67.0833L40 89.375L0 67.2917V22.2917Z" fill="white"/>
</g>
<g filter="url(#filter1_d_1475_753)">
<path d="M19.4536 41.665C19.3267 41.4258 19.4121 41.2402 19.71 41.1084C19.9932 40.9814 20.2886 40.8032 20.5962 40.5737C20.9038 40.3442 21.1553 40.1074 21.3506 39.8633C21.5703 39.5898 21.7803 39.4531 21.9805 39.4531H23.145C23.438 39.4531 23.5845 39.5996 23.5845 39.8926V49.5605C23.5845 49.8535 23.438 50 23.145 50H21.9731C21.6802 50 21.5337 49.8535 21.5337 49.5605V42.5952C21.5337 42.3999 21.5435 42.2046 21.563 42.0093H21.5337C21.3823 42.1997 21.2163 42.3633 21.0356 42.5C20.855 42.6367 20.6719 42.7441 20.4863 42.8223C20.2568 42.9199 20.0835 42.8564 19.9663 42.6318L19.4536 41.665ZM25.4229 44.7925C25.4229 42.8149 25.7305 41.4111 26.3457 40.5811C26.9609 39.751 27.9033 39.3359 29.1729 39.3359C30.4424 39.3359 31.3848 39.751 32 40.5811C32.6152 41.4111 32.9229 42.8149 32.9229 44.7925C32.9229 46.77 32.6152 48.1738 32 49.0039C31.3848 49.834 30.4424 50.249 29.1729 50.249C27.9033 50.249 26.9609 49.834 26.3457 49.0039C25.7305 48.1738 25.4229 46.77 25.4229 44.7925ZM27.5908 44.7925C27.5908 45.6958 27.6641 46.5649 27.8105 47.3999C27.9619 48.2349 28.416 48.6523 29.1729 48.6523C29.9297 48.6523 30.3813 48.2349 30.5278 47.3999C30.6792 46.5649 30.7549 45.6958 30.7549 44.7925C30.7549 43.8892 30.6792 43.02 30.5278 42.1851C30.3813 41.3501 29.9297 40.9326 29.1729 40.9326C28.416 40.9326 27.9619 41.3501 27.8105 42.1851C27.6641 43.02 27.5908 43.8892 27.5908 44.7925ZM34.2119 44.7925C34.2119 42.8149 34.5195 41.4111 35.1348 40.5811C35.75 39.751 36.6924 39.3359 37.9619 39.3359C39.2314 39.3359 40.1738 39.751 40.7891 40.5811C41.4043 41.4111 41.7119 42.8149 41.7119 44.7925C41.7119 46.77 41.4043 48.1738 40.7891 49.0039C40.1738 49.834 39.2314 50.249 37.9619 50.249C36.6924 50.249 35.75 49.834 35.1348 49.0039C34.5195 48.1738 34.2119 46.77 34.2119 44.7925ZM36.3799 44.7925C36.3799 45.6958 36.4531 46.5649 36.5996 47.3999C36.751 48.2349 37.2051 48.6523 37.9619 48.6523C38.7188 48.6523 39.1704 48.2349 39.3169 47.3999C39.4683 46.5649 39.5439 45.6958 39.5439 44.7925C39.5439 43.8892 39.4683 43.02 39.3169 42.1851C39.1704 41.3501 38.7188 40.9326 37.9619 40.9326C37.2051 40.9326 36.751 41.3501 36.5996 42.1851C36.4531 43.02 36.3799 43.8892 36.3799 44.7925ZM43.001 44.7925C43.001 42.8149 43.3086 41.4111 43.9238 40.5811C44.5391 39.751 45.4814 39.3359 46.751 39.3359C48.0205 39.3359 48.9629 39.751 49.5781 40.5811C50.1934 41.4111 50.501 42.8149 50.501 44.7925C50.501 46.77 50.1934 48.1738 49.5781 49.0039C48.9629 49.834 48.0205 50.249 46.751 50.249C45.4814 50.249 44.5391 49.834 43.9238 49.0039C43.3086 48.1738 43.001 46.77 43.001 44.7925ZM45.1689 44.7925C45.1689 45.6958 45.2422 46.5649 45.3887 47.3999C45.54 48.2349 45.9941 48.6523 46.751 48.6523C47.5078 48.6523 47.9595 48.2349 48.106 47.3999C48.2573 46.5649 48.333 45.6958 48.333 44.7925C48.333 43.8892 48.2573 43.02 48.106 42.1851C47.9595 41.3501 47.5078 40.9326 46.751 40.9326C45.9941 40.9326 45.54 41.3501 45.3887 42.1851C45.2422 43.02 45.1689 43.8892 45.1689 44.7925ZM52.8301 50C52.4883 50 52.3174 49.8169 52.3174 49.4507V40.0464C52.3174 39.6802 52.4883 39.4971 52.8301 39.4971H55.5693C57.3271 39.4971 58.5454 39.7827 59.2241 40.354C59.9077 40.9253 60.2495 41.7358 60.2495 42.7856C60.2495 43.8354 59.9077 44.646 59.2241 45.2173C58.5454 45.7886 57.3271 46.0742 55.5693 46.0742H54.4561V49.4507C54.4561 49.8169 54.2852 50 53.9434 50H52.8301ZM54.4561 44.2871H55.562C56.5386 44.2871 57.2026 44.1724 57.5542 43.9429C57.9058 43.7085 58.0815 43.3228 58.0815 42.7856C58.0815 42.2485 57.9058 41.8652 57.5542 41.6357C57.2026 41.4014 56.5386 41.2842 55.562 41.2842H54.4561V44.2871Z" fill="black"/>
</g>
<defs>
<filter id="filter0_i_1475_753" x="0" y="0" width="87" height="96.375" filterUnits="userSpaceOnUse" color-interpolation-filters="sRGB">
<feFlood flood-opacity="0" result="BackgroundImageFix"/>
<feBlend mode="normal" in="SourceGraphic" in2="BackgroundImageFix" result="shape"/>
<feColorMatrix in="SourceAlpha" type="matrix" values="0 0 0 0 0 0 0 0 0 0 0 0 0 0 0 0 0 0 127 0" result="hardAlpha"/>
<feOffset dx="10" dy="10"/>
<feGaussianBlur stdDeviation="3.5"/>
<feComposite in2="hardAlpha" operator="arithmetic" k2="-1" k3="1"/>
<feColorMatrix type="matrix" values="0 0 0 0 0 0 0 0 0 0 0 0 0 0 0 0 0 0 0.25 0"/>
<feBlend mode="normal" in2="shape" result="effect1_innerShadow_1475_753"/>
</filter>
<filter id="filter1_d_1475_753" x="18.2632" y="38.3359" width="48.9863" height="18.9131" filterUnits="userSpaceOnUse" color-interpolation-filters="sRGB">
<feFlood flood-opacity="0" result="BackgroundImageFix"/>
<feColorMatrix in="SourceAlpha" type="matrix" values="0 0 0 0 0 0 0 0 0 0 0 0 0 0 0 0 0 0 127 0" result="hardAlpha"/>
<feOffset dx="3" dy="3"/>
<feGaussianBlur stdDeviation="2"/>
<feComposite in2="hardAlpha" operator="out"/>
<feColorMatrix type="matrix" values="0 0 0 0 0 0 0 0 0 0 0 0 0 0 0 0 0 0 0.25 0"/>
<feBlend mode="normal" in2="BackgroundImageFix" result="effect1_dropShadow_1475_753"/>
<feBlend mode="normal" in="SourceGraphic" in2="effect1_dropShadow_1475_753" result="shape"/>
</filter>
</defs>
</svg>
