<svg width="80" height="90" viewBox="0 0 80 90" fill="none" xmlns="http://www.w3.org/2000/svg">
<g filter="url(#filter0_i_1475_761)">
<path d="M0 22.2917L40 0L80 22.2917V67.0833L40 89.375L0 67.2917V22.2917Z" fill="#FFB950"/>
<path d="M0 22.2917L40 0L80 22.2917V67.0833L40 89.375L0 67.2917V22.2917Z" fill="url(#paint0_linear_1475_761)"/>
</g>
<g filter="url(#filter1_d_1475_761)">
<path d="M24.8481 41.665C24.7212 41.4258 24.8066 41.2402 25.1045 41.1084C25.3877 40.9814 25.6831 40.8032 25.9907 40.5737C26.2983 40.3442 26.5498 40.1074 26.7451 39.8633C26.9648 39.5898 27.1748 39.4531 27.375 39.4531H28.5396C28.8325 39.4531 28.979 39.5996 28.979 39.8926V49.5605C28.979 49.8535 28.8325 50 28.5396 50H27.3677C27.0747 50 26.9282 49.8535 26.9282 49.5605V42.5952C26.9282 42.3999 26.938 42.2046 26.9575 42.0093H26.9282C26.7769 42.1997 26.6108 42.3633 26.4302 42.5C26.2495 42.6367 26.0664 42.7441 25.8809 42.8223C25.6514 42.9199 25.478 42.8564 25.3608 42.6318L24.8481 41.665ZM30.8174 44.7925C30.8174 42.8149 31.125 41.4111 31.7402 40.5811C32.3555 39.751 33.2979 39.3359 34.5674 39.3359C35.8369 39.3359 36.7793 39.751 37.3945 40.5811C38.0098 41.4111 38.3174 42.8149 38.3174 44.7925C38.3174 46.77 38.0098 48.1738 37.3945 49.0039C36.7793 49.834 35.8369 50.249 34.5674 50.249C33.2979 50.249 32.3555 49.834 31.7402 49.0039C31.125 48.1738 30.8174 46.77 30.8174 44.7925ZM32.9854 44.7925C32.9854 45.6958 33.0586 46.5649 33.2051 47.3999C33.3564 48.2349 33.8105 48.6523 34.5674 48.6523C35.3242 48.6523 35.7759 48.2349 35.9224 47.3999C36.0737 46.5649 36.1494 45.6958 36.1494 44.7925C36.1494 43.8892 36.0737 43.02 35.9224 42.1851C35.7759 41.3501 35.3242 40.9326 34.5674 40.9326C33.8105 40.9326 33.3564 41.3501 33.2051 42.1851C33.0586 43.02 32.9854 43.8892 32.9854 44.7925ZM39.6064 44.7925C39.6064 42.8149 39.9141 41.4111 40.5293 40.5811C41.1445 39.751 42.0869 39.3359 43.3564 39.3359C44.626 39.3359 45.5684 39.751 46.1836 40.5811C46.7988 41.4111 47.1064 42.8149 47.1064 44.7925C47.1064 46.77 46.7988 48.1738 46.1836 49.0039C45.5684 49.834 44.626 50.249 43.3564 50.249C42.0869 50.249 41.1445 49.834 40.5293 49.0039C39.9141 48.1738 39.6064 46.77 39.6064 44.7925ZM41.7744 44.7925C41.7744 45.6958 41.8477 46.5649 41.9941 47.3999C42.1455 48.2349 42.5996 48.6523 43.3564 48.6523C44.1133 48.6523 44.5649 48.2349 44.7114 47.3999C44.8628 46.5649 44.9385 45.6958 44.9385 44.7925C44.9385 43.8892 44.8628 43.02 44.7114 42.1851C44.5649 41.3501 44.1133 40.9326 43.3564 40.9326C42.5996 40.9326 42.1455 41.3501 41.9941 42.1851C41.8477 43.02 41.7744 43.8892 41.7744 44.7925ZM49.4355 50C49.0938 50 48.9229 49.8169 48.9229 49.4507V40.0464C48.9229 39.6802 49.0938 39.4971 49.4355 39.4971H52.1748C53.9326 39.4971 55.1509 39.7827 55.8296 40.354C56.5132 40.9253 56.855 41.7358 56.855 42.7856C56.855 43.8354 56.5132 44.646 55.8296 45.2173C55.1509 45.7886 53.9326 46.0742 52.1748 46.0742H51.0615V49.4507C51.0615 49.8169 50.8906 50 50.5488 50H49.4355ZM51.0615 44.2871H52.1675C53.144 44.2871 53.8081 44.1724 54.1597 43.9429C54.5112 43.7085 54.687 43.3228 54.687 42.7856C54.687 42.2485 54.5112 41.8652 54.1597 41.6357C53.8081 41.4014 53.144 41.2842 52.1675 41.2842H51.0615V44.2871Z" fill="white"/>
</g>
<defs>
<filter id="filter0_i_1475_761" x="0" y="0" width="87" height="96.375" filterUnits="userSpaceOnUse" color-interpolation-filters="sRGB">
<feFlood flood-opacity="0" result="BackgroundImageFix"/>
<feBlend mode="normal" in="SourceGraphic" in2="BackgroundImageFix" result="shape"/>
<feColorMatrix in="SourceAlpha" type="matrix" values="0 0 0 0 0 0 0 0 0 0 0 0 0 0 0 0 0 0 127 0" result="hardAlpha"/>
<feOffset dx="10" dy="10"/>
<feGaussianBlur stdDeviation="3.5"/>
<feComposite in2="hardAlpha" operator="arithmetic" k2="-1" k3="1"/>
<feColorMatrix type="matrix" values="0 0 0 0 0 0 0 0 0 0 0 0 0 0 0 0 0 0 0.25 0"/>
<feBlend mode="normal" in2="shape" result="effect1_innerShadow_1475_761"/>
</filter>
<filter id="filter1_d_1475_761" x="23.6577" y="38.3359" width="40.1973" height="18.9131" filterUnits="userSpaceOnUse" color-interpolation-filters="sRGB">
<feFlood flood-opacity="0" result="BackgroundImageFix"/>
<feColorMatrix in="SourceAlpha" type="matrix" values="0 0 0 0 0 0 0 0 0 0 0 0 0 0 0 0 0 0 127 0" result="hardAlpha"/>
<feOffset dx="3" dy="3"/>
<feGaussianBlur stdDeviation="2"/>
<feComposite in2="hardAlpha" operator="out"/>
<feColorMatrix type="matrix" values="0 0 0 0 0 0 0 0 0 0 0 0 0 0 0 0 0 0 0.25 0"/>
<feBlend mode="normal" in2="BackgroundImageFix" result="effect1_dropShadow_1475_761"/>
<feBlend mode="normal" in="SourceGraphic" in2="effect1_dropShadow_1475_761" result="shape"/>
</filter>
<linearGradient id="paint0_linear_1475_761" x1="8.49063" y1="-10.9484" x2="59.4344" y2="77.9797" gradientUnits="userSpaceOnUse">
<stop stop-color="#FF5A50"/>
<stop offset="1" stop-color="#FFB950"/>
</linearGradient>
</defs>
</svg>
