<svg width="80" height="90" viewBox="0 0 80 90" fill="none" xmlns="http://www.w3.org/2000/svg">
<g filter="url(#filter0_i_1475_773)">
<path d="M0 22.2917L40 0L80 22.2917V67.0833L40 89.375L0 67.2917V22.2917Z" fill="#FFB950"/>
<path d="M0 22.2917L40 0L80 22.2917V67.0833L40 89.375L0 67.2917V22.2917Z" fill="url(#paint0_linear_1475_773)"/>
</g>
<g filter="url(#filter1_d_1475_773)">
<path d="M18.5327 49.2529C18.3423 49.0918 18.3276 48.8623 18.4888 48.5645L18.8257 47.9492C18.9868 47.6514 19.248 47.6294 19.6094 47.8833C19.9121 48.0981 20.2539 48.2739 20.6348 48.4106C21.0156 48.5425 21.4404 48.6084 21.9092 48.6084C22.5537 48.6084 23.0151 48.4351 23.2935 48.0884C23.5718 47.7368 23.7109 47.3438 23.7109 46.9092C23.7109 46.4648 23.5449 46.0669 23.2129 45.7153C22.8857 45.3589 22.4219 45.1807 21.8213 45.1807H21.2573C20.9399 45.1807 20.7812 45.0513 20.7812 44.7925V43.9868C20.7812 43.7183 20.9399 43.584 21.2573 43.584H21.6968C22.146 43.584 22.5415 43.4448 22.8833 43.1665C23.23 42.8882 23.4033 42.5391 23.4033 42.1191C23.4033 41.792 23.2886 41.521 23.0591 41.3062C22.8345 41.0864 22.4658 40.9766 21.9531 40.9766C21.4697 40.9766 21.0522 41.0474 20.7007 41.189C20.3491 41.3306 20.0708 41.5015 19.8657 41.7017C19.5728 41.9897 19.3213 41.9775 19.1113 41.665L18.6865 41.0425C18.5254 40.8081 18.5742 40.5688 18.833 40.3247C19.1846 39.9878 19.6387 39.7388 20.1953 39.5776C20.752 39.4165 21.2964 39.3359 21.8286 39.3359C23.0835 39.3359 24.0161 39.5874 24.6265 40.0903C25.2368 40.5884 25.542 41.1987 25.542 41.9214C25.542 42.4585 25.332 42.9492 24.9121 43.3936C24.4922 43.833 24.0479 44.1357 23.5791 44.3018V44.3311C24.1357 44.4678 24.6631 44.7681 25.1611 45.2319C25.6592 45.6909 25.9082 46.2622 25.9082 46.9458C25.9082 48.0151 25.5713 48.833 24.8975 49.3994C24.2236 49.9658 23.1958 50.249 21.814 50.249C21.2329 50.249 20.6299 50.1611 20.0049 49.9854C19.3848 49.8047 18.894 49.5605 18.5327 49.2529ZM26.9922 44.7925C26.9922 42.8149 27.2998 41.4111 27.915 40.5811C28.5303 39.751 29.4727 39.3359 30.7422 39.3359C32.0117 39.3359 32.9541 39.751 33.5693 40.5811C34.1846 41.4111 34.4922 42.8149 34.4922 44.7925C34.4922 46.77 34.1846 48.1738 33.5693 49.0039C32.9541 49.834 32.0117 50.249 30.7422 50.249C29.4727 50.249 28.5303 49.834 27.915 49.0039C27.2998 48.1738 26.9922 46.77 26.9922 44.7925ZM29.1602 44.7925C29.1602 45.6958 29.2334 46.5649 29.3799 47.3999C29.5312 48.2349 29.9854 48.6523 30.7422 48.6523C31.499 48.6523 31.9507 48.2349 32.0972 47.3999C32.2485 46.5649 32.3242 45.6958 32.3242 44.7925C32.3242 43.8892 32.2485 43.02 32.0972 42.1851C31.9507 41.3501 31.499 40.9326 30.7422 40.9326C29.9854 40.9326 29.5312 41.3501 29.3799 42.1851C29.2334 43.02 29.1602 43.8892 29.1602 44.7925ZM35.7812 44.7925C35.7812 42.8149 36.0889 41.4111 36.7041 40.5811C37.3193 39.751 38.2617 39.3359 39.5312 39.3359C40.8008 39.3359 41.7432 39.751 42.3584 40.5811C42.9736 41.4111 43.2812 42.8149 43.2812 44.7925C43.2812 46.77 42.9736 48.1738 42.3584 49.0039C41.7432 49.834 40.8008 50.249 39.5312 50.249C38.2617 50.249 37.3193 49.834 36.7041 49.0039C36.0889 48.1738 35.7812 46.77 35.7812 44.7925ZM37.9492 44.7925C37.9492 45.6958 38.0225 46.5649 38.1689 47.3999C38.3203 48.2349 38.7744 48.6523 39.5312 48.6523C40.2881 48.6523 40.7397 48.2349 40.8862 47.3999C41.0376 46.5649 41.1133 45.6958 41.1133 44.7925C41.1133 43.8892 41.0376 43.02 40.8862 42.1851C40.7397 41.3501 40.2881 40.9326 39.5312 40.9326C38.7744 40.9326 38.3203 41.3501 38.1689 42.1851C38.0225 43.02 37.9492 43.8892 37.9492 44.7925ZM44.5703 44.7925C44.5703 42.8149 44.8779 41.4111 45.4932 40.5811C46.1084 39.751 47.0508 39.3359 48.3203 39.3359C49.5898 39.3359 50.5322 39.751 51.1475 40.5811C51.7627 41.4111 52.0703 42.8149 52.0703 44.7925C52.0703 46.77 51.7627 48.1738 51.1475 49.0039C50.5322 49.834 49.5898 50.249 48.3203 50.249C47.0508 50.249 46.1084 49.834 45.4932 49.0039C44.8779 48.1738 44.5703 46.77 44.5703 44.7925ZM46.7383 44.7925C46.7383 45.6958 46.8115 46.5649 46.958 47.3999C47.1094 48.2349 47.5635 48.6523 48.3203 48.6523C49.0771 48.6523 49.5288 48.2349 49.6753 47.3999C49.8267 46.5649 49.9023 45.6958 49.9023 44.7925C49.9023 43.8892 49.8267 43.02 49.6753 42.1851C49.5288 41.3501 49.0771 40.9326 48.3203 40.9326C47.5635 40.9326 47.1094 41.3501 46.958 42.1851C46.8115 43.02 46.7383 43.8892 46.7383 44.7925ZM54.3994 50C54.0576 50 53.8867 49.8169 53.8867 49.4507V40.0464C53.8867 39.6802 54.0576 39.4971 54.3994 39.4971H57.1387C58.8965 39.4971 60.1147 39.7827 60.7935 40.354C61.4771 40.9253 61.8188 41.7358 61.8188 42.7856C61.8188 43.8354 61.4771 44.646 60.7935 45.2173C60.1147 45.7886 58.8965 46.0742 57.1387 46.0742H56.0254V49.4507C56.0254 49.8169 55.8545 50 55.5127 50H54.3994ZM56.0254 44.2871H57.1313C58.1079 44.2871 58.772 44.1724 59.1235 43.9429C59.4751 43.7085 59.6509 43.3228 59.6509 42.7856C59.6509 42.2485 59.4751 41.8652 59.1235 41.6357C58.772 41.4014 58.1079 41.2842 57.1313 41.2842H56.0254V44.2871Z" fill="white"/>
</g>
<defs>
<filter id="filter0_i_1475_773" x="0" y="0" width="87" height="96.375" filterUnits="userSpaceOnUse" color-interpolation-filters="sRGB">
<feFlood flood-opacity="0" result="BackgroundImageFix"/>
<feBlend mode="normal" in="SourceGraphic" in2="BackgroundImageFix" result="shape"/>
<feColorMatrix in="SourceAlpha" type="matrix" values="0 0 0 0 0 0 0 0 0 0 0 0 0 0 0 0 0 0 127 0" result="hardAlpha"/>
<feOffset dx="10" dy="10"/>
<feGaussianBlur stdDeviation="3.5"/>
<feComposite in2="hardAlpha" operator="arithmetic" k2="-1" k3="1"/>
<feColorMatrix type="matrix" values="0 0 0 0 0 0 0 0 0 0 0 0 0 0 0 0 0 0 0.25 0"/>
<feBlend mode="normal" in2="shape" result="effect1_innerShadow_1475_773"/>
</filter>
<filter id="filter1_d_1475_773" x="17.2471" y="38.3359" width="51.5718" height="18.9131" filterUnits="userSpaceOnUse" color-interpolation-filters="sRGB">
<feFlood flood-opacity="0" result="BackgroundImageFix"/>
<feColorMatrix in="SourceAlpha" type="matrix" values="0 0 0 0 0 0 0 0 0 0 0 0 0 0 0 0 0 0 127 0" result="hardAlpha"/>
<feOffset dx="3" dy="3"/>
<feGaussianBlur stdDeviation="2"/>
<feComposite in2="hardAlpha" operator="out"/>
<feColorMatrix type="matrix" values="0 0 0 0 0 0 0 0 0 0 0 0 0 0 0 0 0 0 0.25 0"/>
<feBlend mode="normal" in2="BackgroundImageFix" result="effect1_dropShadow_1475_773"/>
<feBlend mode="normal" in="SourceGraphic" in2="effect1_dropShadow_1475_773" result="shape"/>
</filter>
<linearGradient id="paint0_linear_1475_773" x1="8.49063" y1="-10.9484" x2="59.4344" y2="77.9797" gradientUnits="userSpaceOnUse">
<stop stop-color="#FF5A50"/>
<stop offset="1" stop-color="#FFB950"/>
</linearGradient>
</defs>
</svg>
