<svg width="80" height="90" viewBox="0 0 80 90" fill="none" xmlns="http://www.w3.org/2000/svg">
<g filter="url(#filter0_i_1475_756)">
<path d="M0 22.2917L40 0L80 22.2917V67.0833L40 89.375L0 67.2917V22.2917Z" fill="white"/>
</g>
<g filter="url(#filter1_d_1475_756)">
<path d="M22.5327 49.2529C22.3423 49.0918 22.3276 48.8623 22.4888 48.5645L22.8257 47.9492C22.9868 47.6514 23.248 47.6294 23.6094 47.8833C23.9121 48.0981 24.2539 48.2739 24.6348 48.4106C25.0156 48.5425 25.4404 48.6084 25.9092 48.6084C26.5537 48.6084 27.0151 48.4351 27.2935 48.0884C27.5718 47.7368 27.7109 47.3438 27.7109 46.9092C27.7109 46.4648 27.5449 46.0669 27.2129 45.7153C26.8857 45.3589 26.4219 45.1807 25.8213 45.1807H25.2573C24.9399 45.1807 24.7812 45.0513 24.7812 44.7925V43.9868C24.7812 43.7183 24.9399 43.584 25.2573 43.584H25.6968C26.146 43.584 26.5415 43.4448 26.8833 43.1665C27.23 42.8882 27.4033 42.5391 27.4033 42.1191C27.4033 41.792 27.2886 41.521 27.0591 41.3062C26.8345 41.0864 26.4658 40.9766 25.9531 40.9766C25.4697 40.9766 25.0522 41.0474 24.7007 41.189C24.3491 41.3306 24.0708 41.5015 23.8657 41.7017C23.5728 41.9897 23.3213 41.9775 23.1113 41.665L22.6865 41.0425C22.5254 40.8081 22.5742 40.5688 22.833 40.3247C23.1846 39.9878 23.6387 39.7388 24.1953 39.5776C24.752 39.4165 25.2964 39.3359 25.8286 39.3359C27.0835 39.3359 28.0161 39.5874 28.6265 40.0903C29.2368 40.5884 29.542 41.1987 29.542 41.9214C29.542 42.4585 29.332 42.9492 28.9121 43.3936C28.4922 43.833 28.0479 44.1357 27.5791 44.3018V44.3311C28.1357 44.4678 28.6631 44.7681 29.1611 45.2319C29.6592 45.6909 29.9082 46.2622 29.9082 46.9458C29.9082 48.0151 29.5713 48.833 28.8975 49.3994C28.2236 49.9658 27.1958 50.249 25.814 50.249C25.2329 50.249 24.6299 50.1611 24.0049 49.9854C23.3848 49.8047 22.894 49.5605 22.5327 49.2529ZM30.9922 44.7925C30.9922 42.8149 31.2998 41.4111 31.915 40.5811C32.5303 39.751 33.4727 39.3359 34.7422 39.3359C36.0117 39.3359 36.9541 39.751 37.5693 40.5811C38.1846 41.4111 38.4922 42.8149 38.4922 44.7925C38.4922 46.77 38.1846 48.1738 37.5693 49.0039C36.9541 49.834 36.0117 50.249 34.7422 50.249C33.4727 50.249 32.5303 49.834 31.915 49.0039C31.2998 48.1738 30.9922 46.77 30.9922 44.7925ZM33.1602 44.7925C33.1602 45.6958 33.2334 46.5649 33.3799 47.3999C33.5312 48.2349 33.9854 48.6523 34.7422 48.6523C35.499 48.6523 35.9507 48.2349 36.0972 47.3999C36.2485 46.5649 36.3242 45.6958 36.3242 44.7925C36.3242 43.8892 36.2485 43.02 36.0972 42.1851C35.9507 41.3501 35.499 40.9326 34.7422 40.9326C33.9854 40.9326 33.5312 41.3501 33.3799 42.1851C33.2334 43.02 33.1602 43.8892 33.1602 44.7925ZM39.7812 44.7925C39.7812 42.8149 40.0889 41.4111 40.7041 40.5811C41.3193 39.751 42.2617 39.3359 43.5312 39.3359C44.8008 39.3359 45.7432 39.751 46.3584 40.5811C46.9736 41.4111 47.2812 42.8149 47.2812 44.7925C47.2812 46.77 46.9736 48.1738 46.3584 49.0039C45.7432 49.834 44.8008 50.249 43.5312 50.249C42.2617 50.249 41.3193 49.834 40.7041 49.0039C40.0889 48.1738 39.7812 46.77 39.7812 44.7925ZM41.9492 44.7925C41.9492 45.6958 42.0225 46.5649 42.1689 47.3999C42.3203 48.2349 42.7744 48.6523 43.5312 48.6523C44.2881 48.6523 44.7397 48.2349 44.8862 47.3999C45.0376 46.5649 45.1133 45.6958 45.1133 44.7925C45.1133 43.8892 45.0376 43.02 44.8862 42.1851C44.7397 41.3501 44.2881 40.9326 43.5312 40.9326C42.7744 40.9326 42.3203 41.3501 42.1689 42.1851C42.0225 43.02 41.9492 43.8892 41.9492 44.7925ZM48.5703 44.7925C48.5703 42.8149 48.8779 41.4111 49.4932 40.5811C50.1084 39.751 51.0508 39.3359 52.3203 39.3359C53.5898 39.3359 54.5322 39.751 55.1475 40.5811C55.7627 41.4111 56.0703 42.8149 56.0703 44.7925C56.0703 46.77 55.7627 48.1738 55.1475 49.0039C54.5322 49.834 53.5898 50.249 52.3203 50.249C51.0508 50.249 50.1084 49.834 49.4932 49.0039C48.8779 48.1738 48.5703 46.77 48.5703 44.7925ZM50.7383 44.7925C50.7383 45.6958 50.8115 46.5649 50.958 47.3999C51.1094 48.2349 51.5635 48.6523 52.3203 48.6523C53.0771 48.6523 53.5288 48.2349 53.6753 47.3999C53.8267 46.5649 53.9023 45.6958 53.9023 44.7925C53.9023 43.8892 53.8267 43.02 53.6753 42.1851C53.5288 41.3501 53.0771 40.9326 52.3203 40.9326C51.5635 40.9326 51.1094 41.3501 50.958 42.1851C50.8115 43.02 50.7383 43.8892 50.7383 44.7925ZM58.3994 50C58.0576 50 57.8867 49.8169 57.8867 49.4507V40.0464C57.8867 39.6802 58.0576 39.4971 58.3994 39.4971H61.1387C62.8965 39.4971 64.1147 39.7827 64.7935 40.354C65.4771 40.9253 65.8188 41.7358 65.8188 42.7856C65.8188 43.8354 65.4771 44.646 64.7935 45.2173C64.1147 45.7886 62.8965 46.0742 61.1387 46.0742H60.0254V49.4507C60.0254 49.8169 59.8545 50 59.5127 50H58.3994ZM60.0254 44.2871H61.1313C62.1079 44.2871 62.772 44.1724 63.1235 43.9429C63.4751 43.7085 63.6509 43.3228 63.6509 42.7856C63.6509 42.2485 63.4751 41.8652 63.1235 41.6357C62.772 41.4014 62.1079 41.2842 61.1313 41.2842H60.0254V44.2871Z" fill="black"/>
</g>
<defs>
<filter id="filter0_i_1475_756" x="0" y="0" width="87" height="96.375" filterUnits="userSpaceOnUse" color-interpolation-filters="sRGB">
<feFlood flood-opacity="0" result="BackgroundImageFix"/>
<feBlend mode="normal" in="SourceGraphic" in2="BackgroundImageFix" result="shape"/>
<feColorMatrix in="SourceAlpha" type="matrix" values="0 0 0 0 0 0 0 0 0 0 0 0 0 0 0 0 0 0 127 0" result="hardAlpha"/>
<feOffset dx="10" dy="10"/>
<feGaussianBlur stdDeviation="3.5"/>
<feComposite in2="hardAlpha" operator="arithmetic" k2="-1" k3="1"/>
<feColorMatrix type="matrix" values="0 0 0 0 0 0 0 0 0 0 0 0 0 0 0 0 0 0 0.25 0"/>
<feBlend mode="normal" in2="shape" result="effect1_innerShadow_1475_756"/>
</filter>
<filter id="filter1_d_1475_756" x="21.2471" y="38.3359" width="51.5718" height="18.9131" filterUnits="userSpaceOnUse" color-interpolation-filters="sRGB">
<feFlood flood-opacity="0" result="BackgroundImageFix"/>
<feColorMatrix in="SourceAlpha" type="matrix" values="0 0 0 0 0 0 0 0 0 0 0 0 0 0 0 0 0 0 127 0" result="hardAlpha"/>
<feOffset dx="3" dy="3"/>
<feGaussianBlur stdDeviation="2"/>
<feComposite in2="hardAlpha" operator="out"/>
<feColorMatrix type="matrix" values="0 0 0 0 0 0 0 0 0 0 0 0 0 0 0 0 0 0 0.25 0"/>
<feBlend mode="normal" in2="BackgroundImageFix" result="effect1_dropShadow_1475_756"/>
<feBlend mode="normal" in="SourceGraphic" in2="effect1_dropShadow_1475_756" result="shape"/>
</filter>
</defs>
</svg>
