<svg width="80" height="90" viewBox="0 0 80 90" fill="none" xmlns="http://www.w3.org/2000/svg">
<g filter="url(#filter0_i_1475_747)">
<path d="M0 22.2917L40 0L80 22.2917V67.0833L40 89.375L0 67.2917V22.2917Z" fill="white"/>
</g>
<g filter="url(#filter1_d_1475_747)">
<path d="M23.4272 49.2529C23.2368 49.0918 23.2222 48.8623 23.3833 48.5645L23.7202 47.9492C23.8813 47.6514 24.1426 47.6294 24.5039 47.8833C24.8066 48.0981 25.1484 48.2739 25.5293 48.4106C25.9102 48.5425 26.335 48.6084 26.8037 48.6084C27.4482 48.6084 27.9097 48.4351 28.188 48.0884C28.4663 47.7368 28.6055 47.3438 28.6055 46.9092C28.6055 46.4648 28.4395 46.0669 28.1074 45.7153C27.7803 45.3589 27.3164 45.1807 26.7158 45.1807H26.1519C25.8345 45.1807 25.6758 45.0513 25.6758 44.7925V43.9868C25.6758 43.7183 25.8345 43.584 26.1519 43.584H26.5913C27.0405 43.584 27.436 43.4448 27.7778 43.1665C28.1245 42.8882 28.2979 42.5391 28.2979 42.1191C28.2979 41.792 28.1831 41.521 27.9536 41.3062C27.729 41.0864 27.3604 40.9766 26.8477 40.9766C26.3643 40.9766 25.9468 41.0474 25.5952 41.189C25.2437 41.3306 24.9653 41.5015 24.7603 41.7017C24.4673 41.9897 24.2158 41.9775 24.0059 41.665L23.5811 41.0425C23.4199 40.8081 23.4688 40.5688 23.7275 40.3247C24.0791 39.9878 24.5332 39.7388 25.0898 39.5776C25.6465 39.4165 26.1909 39.3359 26.7231 39.3359C27.978 39.3359 28.9106 39.5874 29.521 40.0903C30.1313 40.5884 30.4365 41.1987 30.4365 41.9214C30.4365 42.4585 30.2266 42.9492 29.8066 43.3936C29.3867 43.833 28.9424 44.1357 28.4736 44.3018V44.3311C29.0303 44.4678 29.5576 44.7681 30.0557 45.2319C30.5537 45.6909 30.8027 46.2622 30.8027 46.9458C30.8027 48.0151 30.4658 48.833 29.792 49.3994C29.1182 49.9658 28.0903 50.249 26.7085 50.249C26.1274 50.249 25.5244 50.1611 24.8994 49.9854C24.2793 49.8047 23.7886 49.5605 23.4272 49.2529ZM31.8867 44.7925C31.8867 42.8149 32.1943 41.4111 32.8096 40.5811C33.4248 39.751 34.3672 39.3359 35.6367 39.3359C36.9062 39.3359 37.8486 39.751 38.4639 40.5811C39.0791 41.4111 39.3867 42.8149 39.3867 44.7925C39.3867 46.77 39.0791 48.1738 38.4639 49.0039C37.8486 49.834 36.9062 50.249 35.6367 50.249C34.3672 50.249 33.4248 49.834 32.8096 49.0039C32.1943 48.1738 31.8867 46.77 31.8867 44.7925ZM34.0547 44.7925C34.0547 45.6958 34.1279 46.5649 34.2744 47.3999C34.4258 48.2349 34.8799 48.6523 35.6367 48.6523C36.3936 48.6523 36.8452 48.2349 36.9917 47.3999C37.1431 46.5649 37.2188 45.6958 37.2188 44.7925C37.2188 43.8892 37.1431 43.02 36.9917 42.1851C36.8452 41.3501 36.3936 40.9326 35.6367 40.9326C34.8799 40.9326 34.4258 41.3501 34.2744 42.1851C34.1279 43.02 34.0547 43.8892 34.0547 44.7925ZM40.6758 44.7925C40.6758 42.8149 40.9834 41.4111 41.5986 40.5811C42.2139 39.751 43.1562 39.3359 44.4258 39.3359C45.6953 39.3359 46.6377 39.751 47.2529 40.5811C47.8682 41.4111 48.1758 42.8149 48.1758 44.7925C48.1758 46.77 47.8682 48.1738 47.2529 49.0039C46.6377 49.834 45.6953 50.249 44.4258 50.249C43.1562 50.249 42.2139 49.834 41.5986 49.0039C40.9834 48.1738 40.6758 46.77 40.6758 44.7925ZM42.8438 44.7925C42.8438 45.6958 42.917 46.5649 43.0635 47.3999C43.2148 48.2349 43.6689 48.6523 44.4258 48.6523C45.1826 48.6523 45.6343 48.2349 45.7808 47.3999C45.9321 46.5649 46.0078 45.6958 46.0078 44.7925C46.0078 43.8892 45.9321 43.02 45.7808 42.1851C45.6343 41.3501 45.1826 40.9326 44.4258 40.9326C43.6689 40.9326 43.2148 41.3501 43.0635 42.1851C42.917 43.02 42.8438 43.8892 42.8438 44.7925ZM50.5049 50C50.1631 50 49.9922 49.8169 49.9922 49.4507V40.0464C49.9922 39.6802 50.1631 39.4971 50.5049 39.4971H53.2441C55.002 39.4971 56.2202 39.7827 56.8989 40.354C57.5825 40.9253 57.9243 41.7358 57.9243 42.7856C57.9243 43.8354 57.5825 44.646 56.8989 45.2173C56.2202 45.7886 55.002 46.0742 53.2441 46.0742H52.1309V49.4507C52.1309 49.8169 51.96 50 51.6182 50H50.5049ZM52.1309 44.2871H53.2368C54.2134 44.2871 54.8774 44.1724 55.229 43.9429C55.5806 43.7085 55.7563 43.3228 55.7563 42.7856C55.7563 42.2485 55.5806 41.8652 55.229 41.6357C54.8774 41.4014 54.2134 41.2842 53.2368 41.2842H52.1309V44.2871Z" fill="black"/>
</g>
<defs>
<filter id="filter0_i_1475_747" x="0" y="0" width="87" height="96.375" filterUnits="userSpaceOnUse" color-interpolation-filters="sRGB">
<feFlood flood-opacity="0" result="BackgroundImageFix"/>
<feBlend mode="normal" in="SourceGraphic" in2="BackgroundImageFix" result="shape"/>
<feColorMatrix in="SourceAlpha" type="matrix" values="0 0 0 0 0 0 0 0 0 0 0 0 0 0 0 0 0 0 127 0" result="hardAlpha"/>
<feOffset dx="10" dy="10"/>
<feGaussianBlur stdDeviation="3.5"/>
<feComposite in2="hardAlpha" operator="arithmetic" k2="-1" k3="1"/>
<feColorMatrix type="matrix" values="0 0 0 0 0 0 0 0 0 0 0 0 0 0 0 0 0 0 0.25 0"/>
<feBlend mode="normal" in2="shape" result="effect1_innerShadow_1475_747"/>
</filter>
<filter id="filter1_d_1475_747" x="22.1416" y="38.3359" width="42.7827" height="18.9131" filterUnits="userSpaceOnUse" color-interpolation-filters="sRGB">
<feFlood flood-opacity="0" result="BackgroundImageFix"/>
<feColorMatrix in="SourceAlpha" type="matrix" values="0 0 0 0 0 0 0 0 0 0 0 0 0 0 0 0 0 0 127 0" result="hardAlpha"/>
<feOffset dx="3" dy="3"/>
<feGaussianBlur stdDeviation="2"/>
<feComposite in2="hardAlpha" operator="out"/>
<feColorMatrix type="matrix" values="0 0 0 0 0 0 0 0 0 0 0 0 0 0 0 0 0 0 0.25 0"/>
<feBlend mode="normal" in2="BackgroundImageFix" result="effect1_dropShadow_1475_747"/>
<feBlend mode="normal" in="SourceGraphic" in2="effect1_dropShadow_1475_747" result="shape"/>
</filter>
</defs>
</svg>
