<svg width="80" height="90" viewBox="0 0 80 90" fill="none" xmlns="http://www.w3.org/2000/svg">
<g filter="url(#filter0_i_1475_767)">
<path d="M0 22.2917L40 0L80 22.2917V67.0833L40 89.375L0 67.2917V22.2917Z" fill="#FFB950"/>
<path d="M0 22.2917L40 0L80 22.2917V67.0833L40 89.375L0 67.2917V22.2917Z" fill="url(#paint0_linear_1475_767)"/>
</g>
<g filter="url(#filter1_d_1475_767)">
<path d="M23.3687 49.2603C23.2075 49.0454 23.1855 48.8599 23.3027 48.7036L23.8154 48.0005C24.0205 47.7173 24.2695 47.71 24.5625 47.9785C24.7383 48.1396 25.0093 48.2861 25.3755 48.418C25.7417 48.5449 26.1079 48.6084 26.4741 48.6084C27.0308 48.6084 27.4995 48.4521 27.8804 48.1396C28.2661 47.8271 28.459 47.3706 28.459 46.77C28.459 46.1987 28.3369 45.7373 28.0928 45.3857C27.8486 45.0342 27.5532 44.8584 27.2065 44.8584C26.9087 44.8584 26.6353 44.8828 26.3862 44.9316C26.1372 44.9756 25.8784 45.1147 25.6099 45.3491C25.4243 45.5103 25.1997 45.5908 24.936 45.5908H24.1377C23.8203 45.5908 23.6616 45.4321 23.6616 45.1147V40.061C23.6616 39.7437 23.8203 39.585 24.1377 39.585H29.4111C29.7285 39.585 29.8872 39.7437 29.8872 40.061V40.9253C29.8872 41.2427 29.7285 41.4014 29.4111 41.4014H25.7124V43.1958C25.7124 43.3911 25.7026 43.5864 25.6831 43.7817H25.7271C25.9858 43.5571 26.2739 43.4082 26.5913 43.335C26.9087 43.2568 27.248 43.2178 27.6094 43.2178C28.4639 43.2178 29.1841 43.5107 29.77 44.0967C30.3608 44.6777 30.6562 45.5786 30.6562 46.7993C30.6562 47.9224 30.2803 48.7793 29.5283 49.3701C28.7812 49.9561 27.8926 50.249 26.8623 50.249C26.0029 50.249 25.2583 50.1562 24.6284 49.9707C24.0034 49.7803 23.5835 49.5435 23.3687 49.2603ZM31.8867 44.7925C31.8867 42.8149 32.1943 41.4111 32.8096 40.5811C33.4248 39.751 34.3672 39.3359 35.6367 39.3359C36.9062 39.3359 37.8486 39.751 38.4639 40.5811C39.0791 41.4111 39.3867 42.8149 39.3867 44.7925C39.3867 46.77 39.0791 48.1738 38.4639 49.0039C37.8486 49.834 36.9062 50.249 35.6367 50.249C34.3672 50.249 33.4248 49.834 32.8096 49.0039C32.1943 48.1738 31.8867 46.77 31.8867 44.7925ZM34.0547 44.7925C34.0547 45.6958 34.1279 46.5649 34.2744 47.3999C34.4258 48.2349 34.8799 48.6523 35.6367 48.6523C36.3936 48.6523 36.8452 48.2349 36.9917 47.3999C37.1431 46.5649 37.2188 45.6958 37.2188 44.7925C37.2188 43.8892 37.1431 43.02 36.9917 42.1851C36.8452 41.3501 36.3936 40.9326 35.6367 40.9326C34.8799 40.9326 34.4258 41.3501 34.2744 42.1851C34.1279 43.02 34.0547 43.8892 34.0547 44.7925ZM40.6758 44.7925C40.6758 42.8149 40.9834 41.4111 41.5986 40.5811C42.2139 39.751 43.1562 39.3359 44.4258 39.3359C45.6953 39.3359 46.6377 39.751 47.2529 40.5811C47.8682 41.4111 48.1758 42.8149 48.1758 44.7925C48.1758 46.77 47.8682 48.1738 47.2529 49.0039C46.6377 49.834 45.6953 50.249 44.4258 50.249C43.1562 50.249 42.2139 49.834 41.5986 49.0039C40.9834 48.1738 40.6758 46.77 40.6758 44.7925ZM42.8438 44.7925C42.8438 45.6958 42.917 46.5649 43.0635 47.3999C43.2148 48.2349 43.6689 48.6523 44.4258 48.6523C45.1826 48.6523 45.6343 48.2349 45.7808 47.3999C45.9321 46.5649 46.0078 45.6958 46.0078 44.7925C46.0078 43.8892 45.9321 43.02 45.7808 42.1851C45.6343 41.3501 45.1826 40.9326 44.4258 40.9326C43.6689 40.9326 43.2148 41.3501 43.0635 42.1851C42.917 43.02 42.8438 43.8892 42.8438 44.7925ZM50.5049 50C50.1631 50 49.9922 49.8169 49.9922 49.4507V40.0464C49.9922 39.6802 50.1631 39.4971 50.5049 39.4971H53.2441C55.002 39.4971 56.2202 39.7827 56.8989 40.354C57.5825 40.9253 57.9243 41.7358 57.9243 42.7856C57.9243 43.8354 57.5825 44.646 56.8989 45.2173C56.2202 45.7886 55.002 46.0742 53.2441 46.0742H52.1309V49.4507C52.1309 49.8169 51.96 50 51.6182 50H50.5049ZM52.1309 44.2871H53.2368C54.2134 44.2871 54.8774 44.1724 55.229 43.9429C55.5806 43.7085 55.7563 43.3228 55.7563 42.7856C55.7563 42.2485 55.5806 41.8652 55.229 41.6357C54.8774 41.4014 54.2134 41.2842 53.2368 41.2842H52.1309V44.2871Z" fill="white"/>
</g>
<defs>
<filter id="filter0_i_1475_767" x="0" y="0" width="87" height="96.375" filterUnits="userSpaceOnUse" color-interpolation-filters="sRGB">
<feFlood flood-opacity="0" result="BackgroundImageFix"/>
<feBlend mode="normal" in="SourceGraphic" in2="BackgroundImageFix" result="shape"/>
<feColorMatrix in="SourceAlpha" type="matrix" values="0 0 0 0 0 0 0 0 0 0 0 0 0 0 0 0 0 0 127 0" result="hardAlpha"/>
<feOffset dx="10" dy="10"/>
<feGaussianBlur stdDeviation="3.5"/>
<feComposite in2="hardAlpha" operator="arithmetic" k2="-1" k3="1"/>
<feColorMatrix type="matrix" values="0 0 0 0 0 0 0 0 0 0 0 0 0 0 0 0 0 0 0.25 0"/>
<feBlend mode="normal" in2="shape" result="effect1_innerShadow_1475_767"/>
</filter>
<filter id="filter1_d_1475_767" x="22.127" y="38.3359" width="42.7974" height="18.9131" filterUnits="userSpaceOnUse" color-interpolation-filters="sRGB">
<feFlood flood-opacity="0" result="BackgroundImageFix"/>
<feColorMatrix in="SourceAlpha" type="matrix" values="0 0 0 0 0 0 0 0 0 0 0 0 0 0 0 0 0 0 127 0" result="hardAlpha"/>
<feOffset dx="3" dy="3"/>
<feGaussianBlur stdDeviation="2"/>
<feComposite in2="hardAlpha" operator="out"/>
<feColorMatrix type="matrix" values="0 0 0 0 0 0 0 0 0 0 0 0 0 0 0 0 0 0 0.25 0"/>
<feBlend mode="normal" in2="BackgroundImageFix" result="effect1_dropShadow_1475_767"/>
<feBlend mode="normal" in="SourceGraphic" in2="effect1_dropShadow_1475_767" result="shape"/>
</filter>
<linearGradient id="paint0_linear_1475_767" x1="8.49063" y1="-10.9484" x2="59.4344" y2="77.9797" gradientUnits="userSpaceOnUse">
<stop stop-color="#FF5A50"/>
<stop offset="1" stop-color="#FFB950"/>
</linearGradient>
</defs>
</svg>
