<svg width="30" height="30" viewBox="0 0 30 30" fill="none" xmlns="http://www.w3.org/2000/svg">
<path fill-rule="evenodd" clip-rule="evenodd" d="M29.4107 25.3047C30.1964 17.9129 30.1964 10.4612 29.4107 3.0694C29.1305 0.433521 26.0256 -0.901687 23.8526 0.679307L16.6064 5.95161C14.3983 7.55817 11.7202 8.42573 8.96892 8.42573H2.20727C0.988228 8.42573 0 9.39301 0 10.5862V17.7878C0 18.981 0.988225 19.9483 2.20727 19.9483H3.30963L1.81688 25.4013C1.65054 26.0089 1.95393 26.6457 2.53641 26.9116L9.03663 29.8785C9.39142 30.0405 9.80123 30.0405 10.156 29.8785C10.5108 29.7166 10.7743 29.4093 10.8756 29.0392L13.1053 20.8943C13.1289 20.8078 13.1431 20.721 13.1484 20.6349C14.38 21.0513 15.5472 21.6519 16.6064 22.4225L23.8526 27.6948C26.0255 29.2758 29.1305 27.9406 29.4107 25.3047ZM26.7762 3.3377C27.543 10.5511 27.543 17.823 26.7762 25.0364C26.7085 25.6735 25.958 25.9962 25.4328 25.6141L18.1865 20.3418C15.5216 18.4028 12.2894 17.3557 8.96891 17.3557L2.64872 17.3557L2.64872 11.0183H8.96892C12.2894 11.0183 15.5216 9.97126 18.1865 8.03231L25.4328 2.76001C25.958 2.37788 26.7085 2.7006 26.7762 3.3377ZM10.6072 20.0513C10.0661 19.983 9.51898 19.9483 8.96891 19.9483H6.05179L4.66297 25.0216L8.72561 26.876L10.5468 20.2233C10.5631 20.1638 10.5833 20.1064 10.6072 20.0513Z" fill="#A4B1DA"/>
</svg>
