<svg width="45" height="45" viewBox="0 0 45 45" fill="none" xmlns="http://www.w3.org/2000/svg">
<path fill-rule="evenodd" clip-rule="evenodd" d="M7.96875 9.375C7.96875 6.52728 10.2773 4.21875 13.125 4.21875H28.1003C29.1573 4.21875 30.1496 4.72795 30.766 5.58665L36.4157 13.4577C36.8159 14.0154 37.0312 14.6846 37.0312 15.3711V35.625C37.0312 38.4727 34.7227 40.7812 31.875 40.7812H13.125C10.2773 40.7812 7.96875 38.4727 7.96875 35.625V9.375ZM13.125 7.03125C11.8306 7.03125 10.7812 8.08058 10.7812 9.375V35.625C10.7812 36.9194 11.8306 37.9688 13.125 37.9688H31.875C33.1694 37.9688 34.2188 36.9194 34.2188 35.625V16.682H28.125C27.3484 16.682 26.7188 16.0524 26.7188 15.2757V7.03125H13.125Z" fill="#A4B1DA"/>
<path fill-rule="evenodd" clip-rule="evenodd" d="M29.0396 23.8345C29.9323 24.5253 29.9323 25.873 29.0396 26.5637C26.3418 28.6512 23.3294 30.2965 20.115 31.4381L19.5277 31.6467C18.4043 32.0457 17.2176 31.2856 17.0656 30.1259C16.6406 26.8857 16.6406 23.5125 17.0656 20.2723C17.2176 19.1126 18.4043 18.3525 19.5277 18.7515L20.115 18.9601C23.3294 20.1017 26.3418 21.7471 29.0396 23.8345ZM28.2135 25.496C28.4077 25.3457 28.4077 25.0525 28.2135 24.9022C25.6288 22.9023 22.7427 21.326 19.6632 20.2323L19.0759 20.0237C18.7835 19.9198 18.4474 20.1178 18.4041 20.4479C17.9944 23.5715 17.9944 26.8267 18.4041 29.9504C18.4474 30.2805 18.7835 30.4784 19.0759 30.3746L19.6632 30.166C22.7427 29.0722 25.6288 27.4959 28.2135 25.496Z" fill="#A4B1DA"/>
</svg>
